# xmcd
#
# Track frame offsets:
#	150
#	12254
#	22822
#	33867
#	45641
#	56010
#	64510
#	74895
#	83469
#	94579
#
# Disc length: 1396 seconds
# Revision: 0
# Processed by: cddbd v1.5.2PL0 Copyright (c) Steve Scherf et al.
# Submitted via: dBpowerAMP V12.0
#
DISCID=7305720a
DTITLE=Waylon Jennings - Waylon Jennings (Vinyl)
DYEAR=1969
DGENRE=
TTITLE0=Don't Think Twice, It's All Right
TTITLE1=Burning Memories
TTITLE2=Big Mamou
TTITLE3=Crying
TTITLE4=Money (That's What I Want)
TTITLE5=Abilene
TTITLE6=Lorena
TTITLE7=Love's Gonna Live Here Again
TTITLE8=Sweet Dreams (Of You)
TTITLE9=White Lightning Cherokee
EXTD=
EXTT0=
EXTT1=
EXTT2=
EXTT3=
EXTT4=
EXTT5=
EXTT6=
EXTT7=
EXTT8=
EXTT9=
PLAYORDER=
